<?xml version="1.0" encoding="UTF-8"?>
<svg id="Ebene_2" data-name="Ebene 2" xmlns="http://www.w3.org/2000/svg" viewBox="0 0 2117.83 2088.62">
  <defs>
    <style>
      .cls-1 {
        fill: #fff;
        stroke-width: 0px;
      }
    </style>
  </defs>
  <path class="cls-1" d="M124.29,483.32C71.15,562.73,29.89,646.6,0,732.84c13.17-23.46,27.32-46.59,42.54-69.33C357.36,193.05,1048.92,2.05,1519.38,316.86c470.46,314.82,541.65,1016.24,226.83,1486.7-78.1,116.71-176.02,212.21-286.28,285.06,186.43-80.13,352.64-213.2,473.9-394.4,334.38-499.69,200.37-1175.84-299.32-1510.22C1134.82-150.38,458.67-16.37,124.29,483.32Z"/>
  <polygon class="cls-1" points="1353.43 470.6 877.74 470.6 717.66 777.07 1280.07 1105.34 472.81 1245.83 231.12 1708.53 632.26 1708.53 777.95 1427.62 1084.89 1427.62 1123.22 1708.53 1524.36 1708.53 1353.43 470.6"/>
  <polygon class="cls-1" points="503.41 826.26 340.91 1137.57 877.74 1044.31 503.41 826.26"/>
</svg>