<?xml version="1.0" encoding="UTF-8"?>
<svg id="Ebene_1" data-name="Ebene 1" xmlns="http://www.w3.org/2000/svg" viewBox="0 0 3305.32 711.43">
  <defs>
    <style>
      .cls-1 {
        fill: #fff;
        stroke-width: 0px;
      }
    </style>
  </defs>
  <path class="cls-1" d="M2172.95,90.29c83.06-66.4,204.22-52.9,270.63,30.16,66.4,83.06,52.9,204.22-30.16,270.63-3.93,3.14-7.97,6.05-12.06,8.83,22.78-7.42,44.65-18.96,64.47-34.8,88.43-70.69,102.8-199.68,32.11-288.11-70.69-88.43-199.68-102.8-288.11-32.11-19.82,15.84-35.89,34.63-48.14,55.22,3.62-3.38,7.34-6.68,11.27-9.82Z"/>
  <g>
    <path class="cls-1" d="M276.44,305.42H125.41l-34.25,85.04H0L153.76,11.57h94.33l153.77,378.89h-90.02M200.65,89.58l-53.98,156.02h108.78l-54.79-156.02Z"/>
    <path class="cls-1" d="M1113.41,390.45h-98.87l-86-140.16h-47.95v140.16h-92.15V11.57h129.23c28.71,0,53.2,2.82,73.47,8.45,20.26,5.63,36.8,13.48,49.62,23.54,12.81,10.05,22.12,21.93,27.94,35.63,5.81,13.69,8.73,28.6,8.73,44.73,0,12.31-1.73,23.93-5.18,34.85-3.45,10.92-5.41,19.32-12.78,30.94-6.14,9.67-8.42,13.49-18.35,23.51-9.23,9.31-16.01,12.89-26,18.63l98.3,158.63ZM917.67,189.7c12.54,0,23.22-1.52,32.03-4.55,8.81-3.03,16.04-7.23,21.67-12.61,5.63-5.37,9.72-11.66,12.27-18.85,2.54-7.19,3.82-14.96,3.82-23.28,0-16.64-5.68-29.64-17.04-39.01-11.36-9.36-28.94-14.04-52.75-14.04h-37.08v112.34h37.08Z"/>
    <path class="cls-1" d="M1594.05,79.18v88.41h124.87v65.02h-124.87v90.23h163.02v67.61h-255.72V11.57h255.72v67.61h-163.02Z"/>
    <path class="cls-1" d="M3226.53,252.63l-2.45-241.06h81.24v378.89h-80.69l-186.75-240.54,1.91,240.54h-81.24V11.57h79.58"/>
  </g>
  <g>
    <path class="cls-1" d="M560.04,636.36l.05,67.84h-12.14s-.11-168.39-.11-168.39l43.44-.03c19.75-.02,34.65,4.3,44.69,12.94,10.04,8.64,15.07,20.98,15.08,37,0,7.38-1.36,14.16-4.09,20.36-2.73,6.19-6.67,11.53-11.83,16.01-5.15,4.49-11.42,7.98-18.79,10.49-7.38,2.5-15.71,3.76-24.99,3.76l-31.3.02ZM560.04,626.61l31.3-.03c7.45,0,14.12-1.04,19.99-3.1,5.87-2.07,10.85-4.94,14.93-8.59,4.08-3.65,7.21-7.96,9.39-12.92,2.18-4.95,3.27-10.36,3.26-16.24,0-12.93-4-22.89-11.97-29.86-7.98-6.98-19.87-10.46-35.65-10.45l-31.3.03.06,81.16Z"/>
    <path class="cls-1" d="M864.16,704h-12.26s-.11-168.39-.11-168.39h12.26s.11,168.39.11,168.39Z"/>
    <path class="cls-1" d="M1202.83,675.45c.8,0,1.47.28,2.03.83l4.76,5.12c-3.49,3.73-7.3,7.09-11.42,10.07s-8.62,5.52-13.49,7.62c-4.89,2.11-10.23,3.73-16.07,4.89-5.83,1.15-12.24,1.73-19.23,1.74-11.66,0-22.35-2.03-32.07-6.11-9.73-4.08-18.06-9.87-25-17.37-6.95-7.48-12.37-16.54-16.27-27.18-3.9-10.62-5.84-22.44-5.85-35.46-.01-12.77,1.99-24.43,5.99-34.99,4-10.55,9.63-19.62,16.88-27.2,7.26-7.58,15.94-13.46,26.05-17.63,10.11-4.16,21.28-6.26,33.5-6.27,6.11,0,11.7.45,16.78,1.36,5.08.91,9.82,2.21,14.23,3.91,4.4,1.7,8.54,3.82,12.43,6.35,3.88,2.53,7.69,5.48,11.43,8.8l-3.68,5.36c-.64.96-1.63,1.43-2.98,1.43-.72,0-1.63-.41-2.74-1.24-1.11-.83-2.52-1.86-4.22-3.1-1.71-1.23-3.77-2.57-6.19-4.04s-5.3-2.82-8.63-4.04c-3.34-1.23-7.19-2.25-11.55-3.08-4.36-.84-9.33-1.25-14.88-1.25-10.23.01-19.64,1.79-28.2,5.32-8.57,3.53-15.95,8.58-22.12,15.12-6.19,6.55-11.01,14.49-14.45,23.82s-5.17,19.78-5.16,31.36c0,11.9,1.72,22.53,5.14,31.89,3.42,9.37,8.14,17.27,14.18,23.73,6.04,6.47,13.16,11.42,21.37,14.86,8.21,3.45,17.12,5.17,26.72,5.16,6.03,0,11.41-.4,16.13-1.2,4.72-.8,9.06-1.99,13.02-3.58,3.97-1.6,7.66-3.54,11.07-5.84,3.41-2.3,6.78-5,10.11-8.1.4-.32.77-.57,1.13-.77.35-.2.77-.31,1.25-.3Z"/>
    <path class="cls-1" d="M1519.65,535.18v10.35s-59.14.04-59.14.04l.11,158.04-12.15.02-.1-158.05-59.5.04v-10.35s130.78-.08,130.78-.08Z"/>
    <path class="cls-1" d="M1773,694.71c8.09,0,15.33-1.42,21.7-4.24,6.39-2.82,11.8-6.73,16.25-11.73,4.44-5,7.83-10.89,10.16-17.68,2.34-6.78,3.5-14.11,3.49-21.96l-.07-104.13h12.15s.07,104.12.07,104.12c0,9.29-1.45,17.96-4.38,26.01-2.93,8.05-7.16,15.07-12.67,21.07-5.5,5.99-12.21,10.7-20.1,14.12-7.9,3.41-16.76,5.12-26.59,5.13-9.84,0-18.71-1.7-26.59-5.1-7.9-3.41-14.61-8.1-20.13-14.09-5.51-5.99-9.74-13.01-12.68-21.06-2.94-8.05-4.42-16.72-4.43-26l-.07-104.13h12.26s.07,104,.07,104c0,7.85,1.18,15.17,3.53,21.95,2.34,6.78,5.71,12.67,10.12,17.67,4.4,5,9.79,8.92,16.18,11.78,6.4,2.84,13.63,4.27,21.73,4.27Z"/>
    <path class="cls-1" d="M2062.85,627.05l.05,76.16h-12.15s-.11-168.39-.11-168.39l42.95-.03c19.44,0,33.96,3.73,43.57,11.23,9.61,7.48,14.42,18.49,14.43,33.01,0,6.43-1.11,12.3-3.32,17.62-2.22,5.31-5.41,9.98-9.57,13.99-4.17,4.01-9.18,7.3-15.05,9.89-5.86,2.58-12.49,4.26-19.87,5.06,1.9,1.19,3.61,2.78,5.12,4.76l58,72.8h-10.59c-1.27,0-2.36-.23-3.27-.7-.92-.47-1.8-1.27-2.68-2.38l-53.96-68.28c-1.35-1.74-2.8-2.97-4.35-3.68-1.54-.71-3.95-1.07-7.2-1.07l-22.01.02ZM2062.85,617.99h29.26c7.46-.02,14.14-.91,20.05-2.7,5.9-1.79,10.91-4.35,15-7.68,4.09-3.34,7.2-7.34,9.33-12.03,2.15-4.68,3.22-9.97,3.21-15.84,0-11.97-3.94-20.86-11.8-26.65-7.87-5.78-19.29-8.66-34.29-8.66l-30.81.02.05,73.53Z"/>
    <path class="cls-1" d="M2460.02,534.55v10.11s-88.63.06-88.63.06l.04,68.08,73.78-.05v9.87s-73.77.05-73.77.05l.05,70.22,88.65-.06v10.11s-100.91.07-100.91.07l-.11-168.39,100.91-.07Z"/>
    <path class="cls-1" d="M2743.15,554.84c-.71,1.36-1.73,2.02-3.09,2.02-1.03,0-2.37-.73-4-2.19-1.63-1.46-3.84-3.09-6.64-4.88-2.77-1.78-6.25-3.43-10.43-4.93-4.18-1.51-9.33-2.25-15.47-2.25-6.13,0-11.52.89-16.17,2.63-4.66,1.75-8.56,4.13-11.71,7.15-3.13,3.02-5.53,6.51-7.15,10.48-1.63,3.97-2.45,8.13-2.44,12.49.01,5.72,1.22,10.43,3.65,14.16,2.43,3.73,5.62,6.9,9.59,9.51,3.98,2.61,8.49,4.81,13.53,6.59s10.24,3.55,15.56,5.29c5.32,1.75,10.51,3.67,15.55,5.76,5.04,2.09,9.55,4.73,13.52,7.91,3.97,3.17,7.17,7.08,9.61,11.71,2.42,4.63,3.64,10.41,3.65,17.31,0,7.07-1.21,13.7-3.63,19.94-2.41,6.23-5.92,11.65-10.52,16.25-4.59,4.61-10.21,8.24-16.88,10.91-6.66,2.66-14.27,3.99-22.85,4-11.11,0-20.66-1.95-28.68-5.88-8.02-3.92-15.04-9.29-21.07-16.12l3.32-5.24c.95-1.19,2.07-1.79,3.34-1.79.72,0,1.63.48,2.74,1.43s2.47,2.13,4.06,3.51c1.59,1.39,3.49,2.89,5.72,4.52s4.8,3.13,7.75,4.51c2.94,1.39,6.31,2.56,10.13,3.51,3.82.95,8.15,1.41,12.99,1.42,6.67,0,12.63-1.03,17.88-3.04,5.24-2.03,9.66-4.79,13.28-8.29,3.6-3.49,6.36-7.64,8.26-12.44,1.91-4.8,2.86-9.94,2.85-15.41,0-5.95-1.22-10.85-3.65-14.7s-5.62-7.06-9.59-9.63-8.49-4.73-13.53-6.48c-5.05-1.73-10.24-3.44-15.55-5.11-5.32-1.66-10.51-3.51-15.55-5.58-5.05-2.06-9.56-4.69-13.53-7.91-3.98-3.21-7.18-7.21-9.61-12-2.42-4.8-3.64-10.81-3.64-18.03,0-5.63,1.06-11.07,3.21-16.31,2.14-5.24,5.27-9.86,9.4-13.87,4.13-4.01,9.24-7.22,15.31-9.64,6.07-2.43,13.02-3.65,20.8-3.65,8.73-.01,16.58,1.37,23.53,4.15,6.94,2.77,13.28,7.01,19,12.72l-2.86,5.48Z"/>
  </g>
</svg>